<svg width="23" height="23" viewBox="0 0 23 23" fill="none" xmlns="http://www.w3.org/2000/svg">
<g id="link">
<path id="up" fill-rule="evenodd" clip-rule="evenodd" d="M10.6066 7.77817L9.19239 6.36396L12.0208 3.53553C13.9734 1.58291 17.1393 1.58291 19.0919 3.53553C21.0445 5.48816 21.0445 8.65398 19.0919 10.6066L16.2635 13.435L14.8492 12.0208L17.6777 9.19239C18.8492 8.02081 18.8492 6.12132 17.6777 4.94975C16.5061 3.77817 14.6066 3.77817 13.435 4.94975L10.6066 7.77817Z" fill=""/>
<path id="dowm" fill-rule="evenodd" clip-rule="evenodd" d="M12.0208 14.8492L13.435 16.2635L10.6066 19.0919C8.65398 21.0445 5.48816 21.0445 3.53553 19.0919C1.58291 17.1393 1.58291 13.9734 3.53553 12.0208L6.36396 9.19239L7.77817 10.6066L4.94975 13.435C3.77817 14.6066 3.77817 16.5061 4.94975 17.6777C6.12132 18.8492 8.02082 18.8492 9.19239 17.6777L12.0208 14.8492Z" fill=""/>
<path id="line" fill-rule="evenodd" clip-rule="evenodd" d="M8.48528 15.5563L7.07107 14.1421L14.1421 7.07107L15.5563 8.48528L8.48528 15.5563Z" fill=""/>
</g>
</svg>
